<?xml version="1.0" standalone="no"?>
<!DOCTYPE svg PUBLIC "-//W3C//DTD SVG 20010904//EN"
 "http://www.w3.org/TR/2001/REC-SVG-20010904/DTD/svg10.dtd">
<svg version="1.0" xmlns="http://www.w3.org/2000/svg"
 width="100.000000pt" height="100.000000pt" viewBox="0 0 100.000000 100.000000"
 preserveAspectRatio="xMidYMid meet">
<metadata>
Created by potrace 1.16, written by Peter Selinger 2001-2019
</metadata>
<g transform="translate(0.000000,100.000000) scale(0.100000,-0.100000)"
fill="#000000" stroke="none">
<path d="M181 914 c-17 -14 -31 -32 -31 -40 0 -8 -10 -14 -25 -14 -14 0 -34
-9 -45 -20 -19 -19 -20 -33 -20 -383 0 -340 1 -365 18 -380 17 -15 61 -17 425
-17 355 0 408 2 421 16 14 13 16 62 16 384 l0 369 -22 15 c-12 9 -30 16 -40
16 -9 0 -25 13 -34 29 -33 57 -112 69 -163 25 -17 -14 -31 -32 -31 -40 0 -26
-30 -14 -69 26 -32 34 -44 40 -79 40 -43 0 -102 -38 -102 -66 0 -26 -30 -14
-69 26 -32 34 -44 40 -79 40 -29 0 -49 -7 -71 -26z m-23 -138 c26 -43 86 -67
110 -43 13 13 13 19 2 31 -7 9 -20 16 -30 16 -10 0 -23 7 -30 15 -11 13 -1 15
83 15 l95 0 20 -34 c26 -43 86 -67 110 -43 13 13 13 19 2 31 -7 9 -20 16 -30
16 -10 0 -23 7 -30 15 -11 13 -1 15 84 15 95 0 96 0 110 -29 14 -25 68 -61 94
-61 5 0 15 7 22 15 15 18 -2 45 -30 45 -10 0 -23 7 -30 15 -12 14 -3 15 81 13
l94 -3 3 -57 3 -58 -225 0 c-124 0 -227 -4 -230 -9 -4 -5 -3 -16 0 -25 5 -14
35 -16 230 -16 l224 0 0 -265 0 -265 -390 0 -390 0 0 265 0 264 103 3 c94 3
102 4 102 23 0 19 -8 20 -102 23 l-103 3 0 53 c0 76 16 87 48 32z"/>
</g>
</svg>
