<svg width="20" height="20" viewBox="0 0 20 20" fill="none" xmlns="http://www.w3.org/2000/svg">
<path d="M10 20C8.02219 20 6.08879 19.4135 4.4443 18.3147C2.79981 17.2159 1.51809 15.6541 0.761209 13.8268C0.00433284 11.9996 -0.193701 9.98891 0.192152 8.0491C0.578004 6.10929 1.53041 4.32746 2.92894 2.92894C4.32746 1.53041 6.10929 0.578004 8.0491 0.192152C9.98891 -0.193701 11.9996 0.00433284 13.8268 0.761209C15.6541 1.51809 17.2159 2.79981 18.3147 4.4443C19.4135 6.08879 20 8.02219 20 10C19.9971 12.6513 18.9426 15.1931 17.0679 17.0679C15.1931 18.9426 12.6513 19.9971 10 20ZM5.315 9.2C5.15669 9.19988 5.00189 9.24673 4.87022 9.33463C4.73854 9.42252 4.63591 9.54751 4.57531 9.69377C4.5147 9.84003 4.49886 10.001 4.52978 10.1562C4.5607 10.3115 4.637 10.4541 4.749 10.566L8.407 14.224C8.4813 14.2984 8.56953 14.3574 8.66665 14.3977C8.76377 14.4379 8.86787 14.4586 8.973 14.4586C9.07814 14.4586 9.18224 14.4379 9.27936 14.3977C9.37648 14.3574 9.46471 14.2984 9.539 14.224L15.4 8.365C15.4743 8.29074 15.5333 8.20257 15.5736 8.10551C15.6138 8.00846 15.6345 7.90443 15.6346 7.79936C15.6346 7.69429 15.614 7.59024 15.5738 7.49315C15.5337 7.39606 15.4748 7.30783 15.4005 7.2335C15.3262 7.15918 15.2381 7.1002 15.141 7.05995C15.044 7.0197 14.9399 6.99896 14.8349 6.99891C14.7298 6.99887 14.6257 7.01952 14.5286 7.05968C14.4316 7.09985 14.3433 7.15874 14.269 7.233L8.973 12.527L5.881 9.43501C5.80694 9.36029 5.71876 9.30104 5.62159 9.2607C5.52443 9.22035 5.42021 9.19972 5.315 9.2Z" fill="#00B3F3"/>
</svg>
