<?xml version="1.0" standalone="no"?>
<!DOCTYPE svg PUBLIC "-//W3C//DTD SVG 20010904//EN"
 "http://www.w3.org/TR/2001/REC-SVG-20010904/DTD/svg10.dtd">
<svg version="1.0" xmlns="http://www.w3.org/2000/svg"
 width="100.000000pt" height="100.000000pt" viewBox="0 0 100.000000 100.000000"
 preserveAspectRatio="xMidYMid meet">
<metadata>
Created by potrace 1.16, written by Peter Selinger 2001-2019
</metadata>
<g transform="translate(0.000000,100.000000) scale(0.100000,-0.100000)"
fill="#000000" stroke="none">
<path d="M359 986 c-156 -43 -303 -192 -345 -350 -18 -66 -18 -206 0 -272 21
-79 65 -153 131 -219 103 -103 206 -145 355 -145 150 0 251 42 357 147 101
100 143 204 143 353 0 149 -42 252 -145 355 -66 66 -140 110 -219 131 -63 17
-215 17 -277 0z m212 -56 c83 -15 189 -72 243 -130 91 -97 138 -243 117 -362
-25 -143 -112 -263 -235 -323 -138 -68 -254 -68 -392 0 -123 60 -210 180 -235
323 -31 176 76 374 245 453 97 46 166 56 257 39z"/>
<path d="M477 704 c-4 -4 -7 -55 -7 -114 l0 -107 97 -97 c69 -68 103 -96 118
-94 44 6 27 41 -64 135 l-90 92 -3 93 c-3 85 -5 93 -23 96 -12 2 -24 0 -28 -4z"/>
</g>
</svg>
