<?xml version="1.0" encoding="UTF-8"?>
<svg width="201px" height="200px" viewBox="0 0 201 200" version="1.1" xmlns="http://www.w3.org/2000/svg" xmlns:xlink="http://www.w3.org/1999/xlink">
    <title>No image@1x</title>
    <g id="Other-screens" stroke="none" stroke-width="1" fill="none" fill-rule="evenodd">
        <g id="8" transform="translate(-87.000000, -45.000000)">
            <g id="No-image" transform="translate(87.500000, 45.000000)">
                <path d="M16,0 L183.551583,0 C192.388139,0 199.551583,7.163444 199.551583,16 L199.551583,183.551583 C199.551583,192.388139 192.388139,199.551583 183.551583,199.551583 L16,199.551583 C7.163444,199.551583 -1.13686838e-13,192.388139 -1.13686838e-13,183.551583 L-1.13686838e-13,16 C-1.13686838e-13,7.163444 7.163444,0 16,0 Z" id="oreo-copy-2" fill="#F5F5F5"></path>
                <path d="M74.4820772,69.0515131 L130.499894,125.06933 L125.069154,130.50007 L117.388099,122.819015 L76.7323922,122.819015 C72.4962017,122.819015 69.0513372,119.37415 69.0513372,115.13796 L69.0513372,115.13796 L69.0513372,84.4135057 C69.0513372,81.7199966 70.4503116,79.3559819 72.5536376,77.9844361 L72.5536376,77.9844361 L69.0513372,74.482253 L74.4820772,69.0515131 Z M111.297432,72.8918647 C113.418575,72.8918647 115.138019,74.6113079 115.138019,76.7324508 L115.138019,76.7324508 L122.819074,76.7324508 C127.055381,76.7324508 130.500246,80.1773153 130.500246,84.413623 L130.500246,84.413623 L130.500246,115.13796 C130.500246,116.436128 130.14637,117.640993 129.575762,118.714106 L129.575762,118.714106 L114.565418,103.703762 C114.901594,102.442165 115.138136,101.141652 115.138136,99.7757328 C115.138136,91.3051101 108.246531,84.4135057 99.7759087,84.4135057 C98.4099893,84.4135057 97.1094764,84.6500479 95.8478794,84.9862237 L95.8478794,84.9862237 L85.2727585,74.4111028 C85.9754691,73.509242 87.0223263,72.8918647 88.2541504,72.8918647 L88.2541504,72.8918647 Z M86.5905021,92.0211834 C85.2409929,94.30596 84.4135643,96.9352347 84.4135643,99.7756156 C84.4135643,108.246238 91.3051687,115.137843 99.7757915,115.137843 C102.616055,115.137843 105.245447,114.310414 107.530224,112.960905 L107.530224,112.960905 Z" id="Combined-Shape" fill="#B7B7B7" fill-rule="nonzero"></path>
            </g>
        </g>
    </g>
</svg>