<?xml version="1.0" standalone="no"?>
<!DOCTYPE svg PUBLIC "-//W3C//DTD SVG 20010904//EN"
 "http://www.w3.org/TR/2001/REC-SVG-20010904/DTD/svg10.dtd">
<svg version="1.0" xmlns="http://www.w3.org/2000/svg"
 width="1753.000000pt" height="1753.000000pt" viewBox="0 0 1753.000000 1753.000000"
 preserveAspectRatio="xMidYMid meet">
<metadata>
Created by potrace 1.16, written by Peter Selinger 2001-2019
</metadata>
<g transform="translate(0.000000,1753.000000) scale(0.100000,-0.100000)"
fill="#000000" stroke="none">
<path d="M9960 17521 c0 -14 1163 -4373 1234 -4626 125 -445 1763 -6571 1758
-6576 -8 -7 -6419 -1725 -6471 -1734 -47 -8 -6413 -1714 -6419 -1720 -10 -9
61 -283 113 -441 437 -1318 1610 -2262 2992 -2409 208 -22 10988 -22 11196 0
856 91 1652 491 2229 1120 526 574 842 1268 923 2030 22 212 22 10988 0 11200
-145 1366 -1070 2527 -2373 2979 -143 49 -401 116 -549 141 -266 45 -249 45
-2500 45 -1285 0 -2133 -4 -2133 -9z m6181 -6431 c70 -13 183 -68 236 -114
111 -97 176 -277 152 -426 -15 -97 -58 -181 -132 -254 -34 -35 -86 -75 -114
-89 -29 -15 -374 -114 -819 -234 l-769 -207 -105 0 c-85 0 -116 5 -162 23
-135 53 -237 163 -279 304 -17 55 -21 87 -17 166 3 90 7 105 42 175 46 94 129
182 206 219 44 21 1514 422 1610 440 46 8 97 7 151 -3z m-5803 -6910 c186 -24
360 -130 450 -273 154 -245 157 -516 8 -740 -85 -128 -186 -204 -343 -257 -91
-32 -107 -34 -228 -34 -122 0 -135 1 -214 32 -46 17 -103 43 -127 57 -104 61
-231 223 -276 353 -20 58 -23 86 -23 207 0 127 3 147 28 221 43 126 110 218
212 294 166 122 321 165 513 140z m1495 -1252 c309 -147 380 -529 143 -763
-34 -33 -87 -72 -119 -88 -34 -17 -480 -141 -1139 -319 -1222 -328 -1190 -321
-1332 -274 -157 53 -258 155 -305 310 -27 88 -28 193 -1 278 36 117 137 235
247 292 18 9 504 142 1080 297 576 154 1070 287 1098 295 32 9 87 13 150 11
92 -2 106 -5 178 -39z m-711 -1394 c126 -40 195 -79 269 -153 125 -125 193
-268 206 -430 9 -127 -32 -295 -97 -393 -112 -169 -255 -262 -468 -304 -99
-19 -159 -18 -251 6 -146 37 -248 96 -340 196 -140 154 -206 410 -155 608 36
139 157 311 272 385 165 105 391 139 564 85z"/>
<path d="M8910 11339 c-530 -32 -1013 -190 -1432 -468 -518 -345 -884 -853
-1034 -1437 -58 -228 -77 -387 -78 -649 -1 -460 80 -816 269 -1191 251 -498
636 -876 1150 -1129 713 -352 1555 -373 2465 -59 291 100 550 224 764 366 l96
63 0 1153 0 1152 -1080 0 -1080 0 0 -560 0 -560 520 0 520 0 0 -244 0 -243
-137 -60 c-414 -181 -735 -222 -1080 -138 -578 140 -991 624 -1063 1245 -15
127 -8 371 14 493 71 386 296 734 611 942 144 95 265 148 445 193 98 25 120
27 325 27 193 0 233 -3 328 -23 343 -74 725 -269 958 -489 l37 -35 366 451
c201 247 366 454 366 460 0 15 -152 134 -281 220 -64 43 -188 114 -275 158
-423 215 -846 332 -1309 363 -173 11 -197 11 -385 -1z"/>
</g>
</svg>
