<?xml version="1.0" standalone="no"?>
<!DOCTYPE svg PUBLIC "-//W3C//DTD SVG 20010904//EN"
 "http://www.w3.org/TR/2001/REC-SVG-20010904/DTD/svg10.dtd">
<svg version="1.0" xmlns="http://www.w3.org/2000/svg"
 width="512.000000pt" height="512.000000pt" viewBox="0 0 512.000000 512.000000"
 preserveAspectRatio="xMidYMid meet">
<metadata>
Created by potrace 1.16, written by Peter Selinger 2001-2019
</metadata>
<g transform="translate(0.000000,512.000000) scale(0.100000,-0.100000)"
fill="#000000" stroke="none">
<path d="M4645 5035 c-137 -46 -1222 -401 -2409 -789 -1566 -512 -2166 -712
-2184 -728 -37 -35 -52 -72 -52 -128 0 -56 15 -94 52 -126 20 -18 1754 -1031
1845 -1078 41 -21 115 -21 156 1 18 9 66 42 107 73 41 31 146 109 232 173
l157 116 -86 -117 c-48 -64 -126 -169 -173 -232 -48 -63 -94 -130 -104 -147
-21 -41 -21 -115 0 -156 47 -91 1060 -1825 1078 -1845 33 -37 70 -52 126 -52
56 0 93 15 128 53 17 17 236 677 813 2443 734 2244 791 2423 787 2475 -5 65
-32 109 -82 133 -65 31 -123 20 -391 -69z"/>
<path d="M765 2161 c-26 -12 -125 -105 -277 -257 -194 -197 -238 -246 -248
-281 -22 -72 9 -154 72 -193 40 -24 126 -27 166 -6 32 18 495 482 511 513 6
12 11 46 11 76 0 68 -28 113 -90 145 -54 27 -92 28 -145 3z"/>
<path d="M1556 1775 c-31 -11 -163 -136 -604 -577 -380 -380 -570 -576 -583
-603 -25 -54 -24 -103 4 -155 42 -80 138 -110 222 -71 27 13 222 202 607 587
510 513 568 573 578 613 22 83 -13 160 -90 199 -51 25 -79 27 -134 7z"/>
<path d="M1935 989 c-31 -17 -495 -481 -511 -511 -22 -43 -18 -129 9 -169 26
-39 97 -79 142 -79 64 1 108 36 347 276 194 197 238 246 248 281 22 72 -9 154
-72 193 -37 22 -129 27 -163 9z"/>
</g>
</svg>
