<?xml version="1.0" standalone="no"?>
<!DOCTYPE svg PUBLIC "-//W3C//DTD SVG 20010904//EN"
 "http://www.w3.org/TR/2001/REC-SVG-20010904/DTD/svg10.dtd">
<svg version="1.0" xmlns="http://www.w3.org/2000/svg"
 width="512.000000pt" height="512.000000pt" viewBox="0 0 512.000000 512.000000"
 preserveAspectRatio="xMidYMid meet">
<metadata>
Created by potrace 1.16, written by Peter Selinger 2001-2019
</metadata>
<g transform="translate(0.000000,512.000000) scale(0.100000,-0.100000)"
fill="#000000" stroke="none">
<path d="M3482 5099 c-18 -12 -42 -39 -52 -60 -19 -36 -20 -61 -20 -404 l0
-365 -85 0 c-47 0 -129 -5 -183 -11 -782 -85 -1441 -588 -1726 -1319 -105
-270 -136 -463 -136 -851 0 -270 1 -277 23 -309 31 -47 78 -72 136 -72 86 0
123 32 196 168 117 220 339 459 562 605 304 198 633 289 1050 289 l163 0 0
-367 c0 -362 1 -369 23 -407 12 -21 38 -47 57 -57 46 -25 125 -25 166 0 35 21
1431 1468 1451 1503 19 36 16 128 -6 163 -31 49 -1424 1489 -1454 1503 -44 19
-127 15 -165 -9z"/>
<path d="M493 4255 c-177 -39 -347 -174 -428 -340 -69 -141 -65 -22 -65 -1783
0 -1783 -6 -1645 73 -1797 56 -108 154 -206 263 -263 150 -77 -25 -72 2224
-72 2249 0 2074 -5 2224 72 109 57 207 155 263 263 77 148 73 91 73 1139 0
843 -2 940 -16 969 -41 80 -103 117 -197 117 -85 0 -141 -29 -182 -95 l-30
-48 -5 -916 -5 -916 -28 -47 c-18 -31 -44 -57 -75 -75 l-47 -28 -1975 0 -1975
0 -47 28 c-31 18 -57 44 -75 75 l-28 47 -3 1528 c-1 1059 1 1541 8 1569 13 47
67 109 118 134 33 17 73 19 417 24 420 6 411 4 472 73 82 94 61 247 -45 322
l-44 30 -401 2 c-308 1 -416 -1 -464 -12z"/>
</g>
</svg>
