<?xml version="1.0" standalone="no"?>
<!DOCTYPE svg PUBLIC "-//W3C//DTD SVG 20010904//EN"
 "http://www.w3.org/TR/2001/REC-SVG-20010904/DTD/svg10.dtd">
<svg version="1.0" xmlns="http://www.w3.org/2000/svg"
 width="512.000000pt" height="512.000000pt" viewBox="0 0 512.000000 512.000000"
 preserveAspectRatio="xMidYMid meet">
<metadata>
Created by potrace 1.16, written by Peter Selinger 2001-2019
</metadata>
<g transform="translate(0.000000,512.000000) scale(0.100000,-0.100000)"
fill="#000000" stroke="none">
<path d="M1192 4940 c-59 -36 -72 -71 -72 -192 l0 -108 -143 0 c-159 0 -225
-12 -322 -60 -143 -70 -261 -207 -309 -360 l-26 -81 0 -1732 c0 -1901 -4
-1782 60 -1912 66 -136 202 -257 346 -306 l69 -24 1765 0 1765 0 69 24 c144
49 280 170 346 306 64 130 60 11 60 1905 0 1894 4 1775 -60 1905 -65 134 -200
255 -341 305 -54 20 -89 24 -231 28 l-168 4 0 107 c0 120 -13 155 -72 191 -45
27 -131 27 -176 0 -59 -36 -72 -71 -72 -192 l0 -108 -480 0 -480 0 0 108 c0
121 -13 156 -72 192 -45 27 -131 27 -176 0 -59 -36 -72 -71 -72 -192 l0 -108
-480 0 -480 0 0 108 c0 89 -3 112 -20 140 -30 48 -75 72 -140 72 -37 0 -66 -6
-88 -20z m954 -1446 c62 -30 97 -109 80 -181 -8 -31 -511 -544 -558 -569 -35
-18 -101 -18 -136 0 -15 8 -111 99 -213 203 -200 203 -210 217 -189 294 14 49
61 96 111 109 69 19 100 1 237 -134 l122 -120 198 196 c108 107 206 201 217
207 29 16 92 13 131 -5z m1764 -320 c107 -63 107 -205 0 -268 -34 -21 -48 -21
-630 -21 -582 0 -596 0 -630 21 -126 73 -99 250 43 284 17 5 291 8 607 7 560
-2 576 -3 610 -23z m-1764 -1120 c62 -30 97 -109 80 -181 -8 -31 -511 -544
-558 -569 -35 -18 -101 -18 -136 0 -15 8 -111 99 -213 203 -200 203 -210 217
-189 294 14 49 61 96 111 109 69 19 100 1 237 -134 l122 -120 198 196 c108
107 206 201 217 207 29 16 92 13 131 -5z m1764 -320 c107 -63 107 -205 0 -268
-34 -21 -48 -21 -630 -21 -582 0 -596 0 -630 21 -126 73 -99 250 43 284 17 5
291 8 607 7 560 -2 576 -3 610 -23z"/>
</g>
</svg>
